G04 EAGLE Gerber RS-274X export*
G75*
%MOMM*%
%FSLAX34Y34*%
%LPD*%
%INSoldermask Top*%
%IPPOS*%
%AMOC8*
5,1,8,0,0,1.08239X$1,22.5*%
G01*
%ADD10C,1.711200*%
%ADD11R,2.387600X2.387600*%
%ADD12C,2.387600*%
%ADD13C,1.511200*%
%ADD14C,2.235200*%
%ADD15R,2.235200X2.235200*%


D10*
X109140Y139700D02*
X94060Y139700D01*
X94060Y165100D02*
X109140Y165100D01*
X109140Y215900D02*
X94060Y215900D01*
X94060Y190500D02*
X109140Y190500D01*
X817960Y482600D02*
X833040Y482600D01*
X833040Y457200D02*
X817960Y457200D01*
X817960Y406400D02*
X833040Y406400D01*
X833040Y431800D02*
X817960Y431800D01*
X820340Y215900D02*
X805260Y215900D01*
X805260Y190500D02*
X820340Y190500D01*
X820340Y139700D02*
X805260Y139700D01*
X805260Y165100D02*
X820340Y165100D01*
D11*
X279400Y266700D03*
D12*
X279400Y241300D03*
X279400Y215900D03*
X279400Y190500D03*
X279400Y165100D03*
X279400Y139700D03*
X279400Y114300D03*
X279400Y88900D03*
D11*
X165100Y266700D03*
D12*
X165100Y241300D03*
X165100Y215900D03*
X165100Y190500D03*
X165100Y165100D03*
X165100Y139700D03*
X165100Y114300D03*
X165100Y88900D03*
D11*
X635000Y88900D03*
D12*
X635000Y114300D03*
X635000Y139700D03*
X635000Y165100D03*
X635000Y190500D03*
X635000Y215900D03*
X635000Y241300D03*
X635000Y266700D03*
D11*
X749300Y88900D03*
D12*
X749300Y114300D03*
X749300Y139700D03*
X749300Y165100D03*
X749300Y190500D03*
X749300Y215900D03*
X749300Y241300D03*
X749300Y266700D03*
D11*
X635000Y355600D03*
D12*
X635000Y381000D03*
X635000Y406400D03*
X635000Y431800D03*
X635000Y457200D03*
X635000Y482600D03*
X635000Y508000D03*
X635000Y533400D03*
D11*
X749300Y355600D03*
D12*
X749300Y381000D03*
X749300Y406400D03*
X749300Y431800D03*
X749300Y457200D03*
X749300Y482600D03*
X749300Y508000D03*
X749300Y533400D03*
D13*
X374840Y546100D02*
X361760Y546100D01*
X361760Y520700D02*
X374840Y520700D01*
X374840Y495300D02*
X361760Y495300D01*
X361760Y469900D02*
X374840Y469900D01*
X374840Y444500D02*
X361760Y444500D01*
X361760Y419100D02*
X374840Y419100D01*
X374840Y393700D02*
X361760Y393700D01*
X361760Y368300D02*
X374840Y368300D01*
X374840Y342900D02*
X361760Y342900D01*
X361760Y317500D02*
X374840Y317500D01*
X374840Y292100D02*
X361760Y292100D01*
X361760Y266700D02*
X374840Y266700D01*
X374840Y241300D02*
X361760Y241300D01*
X361760Y215900D02*
X374840Y215900D01*
X374840Y190500D02*
X361760Y190500D01*
X361760Y165100D02*
X374840Y165100D01*
X374840Y139700D02*
X361760Y139700D01*
X361760Y114300D02*
X374840Y114300D01*
X374840Y88900D02*
X361760Y88900D01*
X361760Y63500D02*
X374840Y63500D01*
X514160Y546100D02*
X527240Y546100D01*
X527240Y520700D02*
X514160Y520700D01*
X514160Y495300D02*
X527240Y495300D01*
X527240Y469900D02*
X514160Y469900D01*
X514160Y444500D02*
X527240Y444500D01*
X527240Y419100D02*
X514160Y419100D01*
X514160Y393700D02*
X527240Y393700D01*
X527240Y368300D02*
X514160Y368300D01*
X514160Y342900D02*
X527240Y342900D01*
X527240Y317500D02*
X514160Y317500D01*
X514160Y292100D02*
X527240Y292100D01*
X527240Y266700D02*
X514160Y266700D01*
X514160Y241300D02*
X527240Y241300D01*
X527240Y215900D02*
X514160Y215900D01*
X514160Y190500D02*
X527240Y190500D01*
X527240Y165100D02*
X514160Y165100D01*
X514160Y139700D02*
X527240Y139700D01*
X527240Y114300D02*
X514160Y114300D01*
X514160Y88900D02*
X527240Y88900D01*
X527240Y63500D02*
X514160Y63500D01*
D14*
X571500Y215900D03*
X571500Y241300D03*
X571500Y266700D03*
X571500Y292100D03*
X571500Y317500D03*
X571500Y342900D03*
D15*
X571500Y368300D03*
D14*
X571500Y393700D03*
D10*
X109140Y292100D02*
X94060Y292100D01*
X94060Y266700D02*
X109140Y266700D01*
X109140Y342900D02*
X94060Y342900D01*
X94060Y368300D02*
X109140Y368300D01*
X109140Y393700D02*
X94060Y393700D01*
X94060Y419100D02*
X109140Y419100D01*
M02*
